<svg xmlns="http://www.w3.org/2000/svg" xmlns:xlink="http://www.w3.org/1999/xlink" width="1200" height="700" viewBox="0 0 1200 700" fill="none">
  <defs>
    <filter id="softGlow" x="-50%" y="-50%" width="200%" height="200%">
      <feGaussianBlur stdDeviation="8" result="blur"/>
      <feColorMatrix in="blur" type="matrix" values="1 0 0 0 0  0 1 0 0 0.92  0 0 1 0 0.85  0 0 0 0.75 0"/>
    </filter>
    <filter id="bigGlow" x="-100%" y="-100%" width="300%" height="300%">
      <feGaussianBlur stdDeviation="16" result="blur"/>
      <feColorMatrix in="blur" type="matrix" values="1 0 0 0 0  0 1 0 0 0.92  0 0 1 0 0.85  0 0 0 0.55 0"/>
    </filter>
    <radialGradient id="pulseGrad" cx="50%" cy="50%" r="50%">
      <stop offset="0%" stop-color="#67F0E0" stop-opacity="0.8"/>
      <stop offset="70%" stop-color="#38D6C8" stop-opacity="0.18"/>
      <stop offset="100%" stop-color="#38D6C8" stop-opacity="0"/>
    </radialGradient>
    <linearGradient id="beam" x1="0" y1="0" x2="1" y2="0">
      <stop offset="0%" stop-color="#67F0E0" stop-opacity="0"/>
      <stop offset="50%" stop-color="#9EFFF2" stop-opacity="1"/>
      <stop offset="100%" stop-color="#67F0E0" stop-opacity="0"/>
    </linearGradient>
    <style>
      .logoWrap { animation: logoFloat 6s ease-in-out infinite; transform-origin: 360px 360px; }
      .logoPulse { animation: pulse 3.6s ease-in-out infinite; transform-origin: 470px 350px; }
      .beam { animation: sweep 3.2s linear infinite; }
      .spawn1 { animation: travel1 2.8s ease-out infinite; }
      .spawn2 { animation: travel2 3.1s ease-out infinite .25s; }
      .spawn3 { animation: travel3 2.9s ease-out infinite .5s; }
      .spawn4 { animation: travel4 3.2s ease-out infinite .8s; }
      .nodePulse { animation: nodePulse 2.2s ease-in-out infinite; }
      .line1 { stroke-dasharray: 340; stroke-dashoffset: 340; animation: lineGrow1 3.1s ease-out infinite; }
      .line2 { stroke-dasharray: 240; stroke-dashoffset: 240; animation: lineGrow2 3.1s ease-out infinite .18s; }
      .line3 { stroke-dasharray: 290; stroke-dashoffset: 290; animation: lineGrow3 3.1s ease-out infinite .36s; }
      .line4 { stroke-dasharray: 310; stroke-dashoffset: 310; animation: lineGrow4 3.1s ease-out infinite .52s; }
      .ring { animation: ring 2.2s ease-out infinite; transform-origin: 520px 355px; }
      .gridFade { animation: gridFade 4.6s ease-in-out infinite; }
      @keyframes logoFloat { 0%,100% { transform: translateY(0px); } 50% { transform: translateY(-7px); } }
      @keyframes pulse { 0%,100% { opacity:.16; transform: scale(.92); } 50% { opacity:.34; transform: scale(1.05); } }
      @keyframes sweep { 0% { transform: translateX(-420px); opacity: 0; } 15% { opacity: .95; } 55% { opacity: .95; } 100% { transform: translateX(440px); opacity: 0; } }
      @keyframes ring { 0% { opacity:0; transform: scale(.2); } 15% { opacity:.9; } 100% { opacity:0; transform: scale(2.8); } }
      @keyframes lineGrow1 { 0%,8% { stroke-dashoffset:340; opacity:0; } 20% { opacity:.9; } 65%,100% { stroke-dashoffset:0; opacity:.6; } }
      @keyframes lineGrow2 { 0%,8% { stroke-dashoffset:240; opacity:0; } 20% { opacity:.9; } 65%,100% { stroke-dashoffset:0; opacity:.5; } }
      @keyframes lineGrow3 { 0%,8% { stroke-dashoffset:290; opacity:0; } 20% { opacity:.9; } 65%,100% { stroke-dashoffset:0; opacity:.6; } }
      @keyframes lineGrow4 { 0%,8% { stroke-dashoffset:310; opacity:0; } 20% { opacity:.9; } 65%,100% { stroke-dashoffset:0; opacity:.45; } }
      @keyframes nodePulse { 0%,100% { transform: scale(1); opacity:.85; } 50% { transform: scale(1.18); opacity:1; } }
      @keyframes travel1 { 0% { transform: translate(520px,355px) scale(.2); opacity:0; } 8% { opacity:1; } 70% { opacity:1; } 100% { transform: translate(815px,220px) scale(1); opacity:0; } }
      @keyframes travel2 { 0% { transform: translate(520px,355px) scale(.2); opacity:0; } 8% { opacity:1; } 70% { opacity:1; } 100% { transform: translate(935px,325px) scale(1); opacity:0; } }
      @keyframes travel3 { 0% { transform: translate(520px,355px) scale(.2); opacity:0; } 8% { opacity:1; } 70% { opacity:1; } 100% { transform: translate(835px,485px) scale(1); opacity:0; } }
      @keyframes travel4 { 0% { transform: translate(520px,355px) scale(.2); opacity:0; } 8% { opacity:1; } 70% { opacity:1; } 100% { transform: translate(1010px,190px) scale(1); opacity:0; } }
      @keyframes gridFade { 0%,100% { opacity:.04; } 50% { opacity:.12; } }
    </style>
  </defs>

  <!-- transparent overall, with subtle ambient effects only -->
  <g class="gridFade" opacity="0.08">
    <path d="M740 180H1120M690 240H1080M650 300H1040M620 360H1090M650 420H1050M700 480H1120" stroke="#52DCCE" stroke-width="1"/>
    <path d="M800 120V540M880 140V560M960 160V580M1040 120V520" stroke="#52DCCE" stroke-width="1"/>
  </g>

  <ellipse class="logoPulse" cx="430" cy="360" rx="150" ry="115" fill="url(#pulseGrad)" filter="url(#bigGlow)"/>

  <g class="logoWrap">
    <!-- primary lobster larger, centered stage -->
    <g transform="translate(340, 280) scale(4.2)" filter="url(#softGlow)">
      <path d="M15.5 12.5C18.3 11.8 20.8 13.2 21.7 15.3C22.5 17.2 21.4 19.2 19.5 20.1C17.6 21 15.4 20.1 14.6 18.2C13.8 16.3 14.7 14.1 16.6 13.2Z" fill="#67F0E0" opacity="0.95"/>
      <path d="M8.2 14.8C7.8 14.3 8.5 13.7 9.1 14.2L13.4 17.8C13.8 18.1 14.2 17.5 13.9 17.1L10.3 12.8C9.8 12.2 10.4 11.5 10.9 12L15.2 16.6" stroke="#9EFFF2" stroke-width="0.6" fill="none" stroke-linecap="round"/>
      <path d="M16.8 12.3C17.3 11.8 18.0 12.5 17.5 13L13.1 17.4C12.7 17.8 12.1 17.2 12.5 16.8L16.9 12.4" stroke="#9EFFF2" stroke-width="0.6" fill="none" stroke-linecap="round"/>
      <ellipse cx="16" cy="15.2" rx="2.1" ry="1.8" fill="#4DFFEB" opacity="0.9"/>
      <ellipse cx="15.7" cy="14.9" rx="0.9" ry="0.8" fill="#1AFFF0"/>
      <ellipse cx="18.5" cy="13.8" rx="1.2" ry="1" fill="#52DCCE" opacity="0.75"/>
      <ellipse cx="20.1" cy="15.2" rx="0.8" ry="0.7" fill="#3EFDE8"/>
      <path d="M13.2 19.5C13.6 20.2 14.8 20.1 15.2 19.4L18.7 13.8C19 13.2 18.3 12.8 17.8 13.3L11.8 18.9C11.4 19.2 11.8 19.9 12.4 19.6L18.4 16.8" stroke="#67F0E0" stroke-width="0.7" fill="none" stroke-linecap="round"/>
      <ellipse cx="12.8" cy="18.2" rx="1.4" ry="1.1" fill="#38D6C8" opacity="0.8"/>
      <ellipse cx="21.3" cy="17.1" rx="1.1" ry="0.9" fill="#45C7B8" opacity="0.7"/>
    </g>
    
    <!-- secondary lobster smaller, upper right -->
    <g transform="translate(450, 240) scale(3.1)" filter="url(#softGlow)">
      <path d="M15.5 12.5C18.3 11.8 20.8 13.2 21.7 15.3C22.5 17.2 21.4 19.2 19.5 20.1C17.6 21 15.4 20.1 14.6 18.2C13.8 16.3 14.7 14.1 16.6 13.2Z" fill="#52DCCE" opacity="0.88"/>
      <path d="M8.2 14.8C7.8 14.3 8.5 13.7 9.1 14.2L13.4 17.8C13.8 18.1 14.2 17.5 13.9 17.1L10.3 12.8C9.8 12.2 10.4 11.5 10.9 12L15.2 16.6" stroke="#7DE2D1" stroke-width="0.5" fill="none" stroke-linecap="round"/>
      <ellipse cx="16" cy="15.2" rx="2.1" ry="1.8" fill="#3EFDE8" opacity="0.8"/>
      <ellipse cx="15.7" cy="14.9" rx="0.9" ry="0.8" fill="#1AFFF0" opacity="0.9"/>
      <ellipse cx="18.5" cy="13.8" rx="1.2" ry="1" fill="#45C7B8" opacity="0.65"/>
      <path d="M13.2 19.5C13.6 20.2 14.8 20.1 15.2 19.4L18.7 13.8C19 13.2 18.3 12.8 17.8 13.3L11.8 18.9C11.4 19.2 11.8 19.9 12.4 19.6L18.4 16.8" stroke="#52DCCE" stroke-width="0.6" fill="none" stroke-linecap="round"/>
    </g>
    
    <!-- tertiary lobster smaller, lower left -->
    <g transform="translate(280, 350) scale(2.8)" filter="url(#softGlow)">
      <path d="M15.5 12.5C18.3 11.8 20.8 13.2 21.7 15.3C22.5 17.2 21.4 19.2 19.5 20.1C17.6 21 15.4 20.1 14.6 18.2C13.8 16.3 14.7 14.1 16.6 13.2Z" fill="#45C7B8" opacity="0.82"/>
      <ellipse cx="16" cy="15.2" rx="2.1" ry="1.8" fill="#52DCCE" opacity="0.75"/>
      <ellipse cx="15.7" cy="14.9" rx="0.9" ry="0.8" fill="#67F0E0" opacity="0.85"/>
      <path d="M13.2 19.5C13.6 20.2 14.8 20.1 15.2 19.4L18.7 13.8C19 13.2 18.3 12.8 17.8 13.3L11.8 18.9C11.4 19.2 11.8 19.9 12.4 19.6L18.4 16.8" stroke="#45C7B8" stroke-width="0.5" fill="none" stroke-linecap="round"/>
    </g>
  </g>

  <!-- pulse ring at spawn point -->
  <circle class="ring" cx="520" cy="355" r="16" fill="none" stroke="#67F0E0" stroke-width="2.5" opacity="0"/>

  <!-- smaller spawning entities travel outward -->
  <g class="spawn1" opacity="0">
    <g transform="scale(0.2)" filter="url(#softGlow)">
      <path d="M15.5 12.5C18.3 11.8 20.8 13.2 21.7 15.3C22.5 17.2 21.4 19.2 19.5 20.1C17.6 21 15.4 20.1 14.6 18.2C13.8 16.3 14.7 14.1 16.6 13.2Z" fill="#52DCCE" opacity="0.9"/>
      <ellipse cx="16" cy="15.2" rx="2.1" ry="1.8" fill="#3EFDE8" opacity="0.8"/>
    </g>
  </g>
  
  <g class="spawn2" opacity="0">
    <g transform="scale(0.2)" filter="url(#softGlow)">
      <path d="M15.5 12.5C18.3 11.8 20.8 13.2 21.7 15.3C22.5 17.2 21.4 19.2 19.5 20.1C17.6 21 15.4 20.1 14.6 18.2C13.8 16.3 14.7 14.1 16.6 13.2Z" fill="#45C7B8" opacity="0.85"/>
      <ellipse cx="16" cy="15.2" rx="2.1" ry="1.8" fill="#52DCCE" opacity="0.75"/>
    </g>
  </g>
  
  <g class="spawn3" opacity="0">
    <g transform="scale(0.2)" filter="url(#softGlow)">
      <path d="M15.5 12.5C18.3 11.8 20.8 13.2 21.7 15.3C22.5 17.2 21.4 19.2 19.5 20.1C17.6 21 15.4 20.1 14.6 18.2C13.8 16.3 14.7 14.1 16.6 13.2Z" fill="#67F0E0" opacity="0.8"/>
      <ellipse cx="16" cy="15.2" rx="2.1" ry="1.8" fill="#4DFFEB" opacity="0.7"/>
    </g>
  </g>
  
  <g class="spawn4" opacity="0">
    <g transform="scale(0.2)" filter="url(#softGlow)">
      <path d="M15.5 12.5C18.3 11.8 20.8 13.2 21.7 15.3C22.5 17.2 21.4 19.2 19.5 20.1C17.6 21 15.4 20.1 14.6 18.2C13.8 16.3 14.7 14.1 16.6 13.2Z" fill="#38D6C8" opacity="0.78"/>
      <ellipse cx="16" cy="15.2" rx="2.1" ry="1.8" fill="#45C7B8" opacity="0.65"/>
    </g>
  </g>

  <!-- connection nodes at destinations -->
  <circle class="nodePulse" cx="815" cy="220" r="6" fill="#67F0E0" opacity="0.85"/>
  <circle class="nodePulse" cx="935" cy="325" r="5.5" fill="#52DCCE" opacity="0.75"/>
  <circle class="nodePulse" cx="835" cy="485" r="6.5" fill="#45C7B8" opacity="0.8"/>
  <circle class="nodePulse" cx="1010" cy="190" r="5" fill="#38D6C8" opacity="0.7"/>

  <!-- connecting lines -->
  <path class="line1" d="M520 355L815 220" stroke="#67F0E0" stroke-width="1.5" fill="none" opacity="0"/>
  <path class="line2" d="M520 355L935 325" stroke="#52DCCE" stroke-width="1.2" fill="none" opacity="0"/>
  <path class="line3" d="M520 355L835 485" stroke="#45C7B8" stroke-width="1.4" fill="none" opacity="0"/>
  <path class="line4" d="M520 355L1010 190" stroke="#38D6C8" stroke-width="1.1" fill="none" opacity="0"/>

  <!-- CLAW text in the bottom (subtle) -->
  <text x="420" y="580" font-family="Arial, sans-serif" font-size="28" font-weight="bold" fill="#38D6C8" opacity="0.65">CLAW</text>

  <!-- animated energy beam -->
  <rect class="beam" x="0" y="348" width="80" height="14" fill="url(#beam)" opacity="0.7" rx="7"/>
</svg>